<?xml version="1.0" encoding="UTF-8"?>
<svg width="118px" height="121px" viewBox="0 0 118 121" version="1.1" xmlns="http://www.w3.org/2000/svg" xmlns:xlink="http://www.w3.org/1999/xlink">
    <!-- Generator: sketchtool 46.2 (44496) - http://www.bohemiancoding.com/sketch -->
    <title>985B75B8-616A-4904-8BA1-0EA005DAA5B6</title>
    <desc>Created with sketchtool.</desc>
    <defs></defs>
    <g id="Design" stroke="none" stroke-width="1" fill="none" fill-rule="evenodd">
        <g id="авторизация" transform="translate(-745.000000, -76.000000)">
            <g id="logo" transform="translate(746.000000, 77.000000)">
                <g id="сергек">
                    <g>
                        <path d="M10.6969915,48.5421297 C9.26212754,48.5421297 8.14970491,49.0920725 7.35166259,50.2229407 C6.55362027,51.3383175 6.16669066,52.887452 6.16669066,54.8548528 C6.16669066,58.9445679 7.77889737,60.9971711 11.0355549,60.9971711 C12.01094,60.9971711 12.970203,60.8654947 13.8810998,60.6021418 C14.7919965,60.338789 15.7270764,60.0367078 16.6540953,59.6649155 L16.6540953,64.5369435 C14.8081186,65.3270021 12.7203109,65.7142857 10.3745502,65.7142857 C7.02922125,65.7142857 4.45775155,64.7770593 2.68432417,62.9180979 C0.886713689,61.0358995 0,58.3481511 0,54.8316158 C0,52.6240991 0.435295811,50.6799353 1.2978264,49.0146157 C2.16035699,47.3338048 3.40981719,46.0635145 5.03008493,45.1650165 C6.64229164,44.2432815 8.55275659,43.8095238 10.7614798,43.8095238 C13.1475457,43.8095238 15.4207572,44.3129925 17.6052973,45.2966929 L15.7835037,49.8434027 C14.9612782,49.4716104 14.1471139,49.1695292 13.3248884,48.9061763 C12.5107241,48.6505691 11.6240104,48.5421297 10.6969915,48.5421297 L10.6969915,48.5421297 Z M34.1465381,65.4122045 L20.9748093,65.4122045 L20.9748093,44.1270964 L34.1465381,44.1270964 L34.1465381,48.7357715 L26.9560962,48.7357715 L26.9560962,52.0819021 L33.5983878,52.0819021 L33.5983878,56.7138142 L26.9560962,56.7138142 L26.9560962,60.7338183 L34.1465381,60.7338183 L34.1465381,65.4122045 Z M54.0895351,50.8735772 C54.0895351,53.2592443 53.364042,55.0949687 51.904995,56.4039873 C50.4459479,57.689769 48.3581402,58.3481511 45.673816,58.3481511 L43.98906,58.3481511 L43.98906,65.4044588 L38.0077731,65.4044588 L38.0077731,44.1270964 L45.673816,44.1270964 C48.4951778,44.1270964 50.5829855,44.6925305 51.9936663,45.8776184 C53.3882251,47.0549606 54.0895351,48.7125345 54.0895351,50.8735772 L54.0895351,50.8735772 Z M43.98906,53.6542736 L45.0772996,53.6542736 C45.9881963,53.6542736 46.6895063,53.4141577 47.2376565,52.933926 C47.7616237,52.4536943 48.0356989,51.7720752 48.0356989,50.9200512 C48.0356989,49.4793561 47.1973514,48.7744999 45.5367785,48.7744999 L43.98906,48.7744999 L43.98906,53.6542736 Z M72.3961422,44.1270964 L72.3961422,48.7822456 L63.6418598,48.7822456 L63.6418598,65.4122045 L57.6122067,65.4122045 L57.6122067,44.1270964 L72.3961422,44.1270964 Z M88.7277962,65.4122045 L75.5802505,65.4122045 L75.5802505,44.1270964 L88.7277962,44.1270964 L88.7277962,48.7357715 L81.5615374,48.7357715 L81.5615374,52.0819021 L88.203829,52.0819021 L88.203829,56.7138142 L81.5615374,56.7138142 L81.5615374,60.7338183 L88.7277962,60.7338183 L88.7277962,65.4122045 Z M112,65.4122045 L105.220671,65.4122045 L98.6267454,54.614737 L98.6267454,65.4122045 L92.6212754,65.4122045 L92.6212754,44.1270964 L98.6267454,44.1270964 L98.6267454,54.4443322 L104.970779,44.1270964 L111.540521,44.1270964 L104.720887,54.2894187 L112,65.4122045 Z" id="Shape" fill="#FFFFFF" fill-rule="nonzero"></path>
                        <path d="M54.6460449,16.4285714 C57.668275,16.4285714 60.3970077,17.6596222 62.3642335,19.6293035 C64.3552565,21.6228116 65.5609756,24.3549501 65.5609756,27.3809524 C65.5609756,30.4069547 64.3552565,33.1390932 62.3642335,35.1087745 C60.3970077,37.1022825 57.6603426,38.3333333 54.6460449,38.3333333 C51.6317472,38.3333333 48.8950821,37.1022825 46.9040591,35.1087745 C44.9368333,33.1390932 43.7073171,30.3990124 43.7073171,27.3809524 C43.7073171,24.3549501 44.9368333,21.6228116 46.9040591,19.6293035 C48.8950821,17.6596222 51.6238148,16.4285714 54.6460449,16.4285714 L54.6460449,16.4285714 Z M60.7301669,21.2892365 C59.1595591,19.7166684 57.0178213,18.7556545 54.6460449,18.7556545 C52.2504714,18.7556545 50.1008012,19.7166684 48.5381258,21.2892365 C46.9913151,22.8379778 46.0077022,25.0062157 46.0077022,27.3809524 C46.0077022,29.7556891 46.9913151,31.9318692 48.5381258,33.4726683 C50.1087336,35.0452364 52.2504714,36.0062502 54.6460449,36.0062502 C57.0178213,36.0062502 59.1674915,35.0452364 60.7301669,33.4726683 C62.3007746,31.9239269 63.2605905,29.7556891 63.2605905,27.3809524 C63.2605905,25.0062157 62.3007746,22.8379778 60.7301669,21.2892365 L60.7301669,21.2892365 Z" id="Shape" fill="#1477BD" fill-rule="nonzero"></path>
                        <path d="M19.5896868,78.8816477 L10.9268293,78.8816477 C10.9268293,81.1180038 10.9268293,84.1719523 10.9268293,86.416324 L54.6463019,115 L98.3414634,86.416324 C98.3414634,84.1799679 98.3414634,81.1260194 98.3414634,78.8816477 L89.6786059,78.8816477 L89.6786059,81.8233777 L54.6463019,104.732 L19.5977905,81.8233777 L19.5977905,78.8816477 L19.5896868,78.8816477 Z M89.6786059,37.448944 L89.6786059,18.3798007 L54.6463019,8.85725239 L19.5896868,18.3798007 L19.5896868,37.448944 L10.9268293,37.448944 C10.9268293,28.9203318 10.9268293,20.3997351 10.9268293,11.8711229 L54.6463019,0 L98.3414634,11.8711229 C98.3414634,20.3997351 98.3414634,28.9203318 98.3414634,37.448944 L89.6786059,37.448944 Z" id="Shape" fill="#2BAAE2"></path>
                        <polygon id="Shape" fill="#1477BD" points="98.3414634 12.1570725 54.6341463 0 54.6341463 9.07268707 89.676196 18.8180327 89.676196 38.3333333 98.3414634 38.3333333"></polygon>
                        <polygon id="Shape" fill="#1477BD" points="89.676196 82.3038858 54.6341463 104.880715 54.6341463 115 98.3414634 86.8224114 98.3414634 79.4047619 89.676196 79.4047619"></polygon>
                        <path d="M62.3607214,19.6281434 C60.3913579,17.659176 57.6517193,16.4285714 54.6341463,16.4285714 L54.6341463,18.7548111 C57.0084998,18.7548111 59.1605058,19.7154766 60.7248792,21.2874748 C62.2971935,22.8356547 63.2580523,25.0031067 63.2580523,27.3769827 C63.2580523,29.7508587 62.2971935,31.92625 60.7248792,33.4664906 C59.1525648,35.0384888 57.0084998,35.9991543 54.6341463,35.9991543 L54.6341463,38.3333333 C57.6596603,38.3333333 60.3913579,37.1027287 62.3607214,35.1099432 C64.3539077,33.1409759 65.5609369,30.4018882 65.5609369,27.3849221 C65.5688779,24.3520772 64.3539077,21.6209289 62.3607214,19.6281434 L62.3607214,19.6281434 Z" id="Shape" fill="#2BAAE2"></path>
                    </g>
                </g>
            </g>
        </g>
    </g>
</svg>